<svg width="258" height="38" viewBox="0 0 258 38" fill="none" xmlns="http://www.w3.org/2000/svg">
<path d="M12.9091 37H0.586648V0.636363H13.1577C16.768 0.636363 19.8693 1.36435 22.4616 2.82031C25.0658 4.26444 27.0663 6.34185 28.4631 9.05256C29.8598 11.7633 30.5582 15.0066 30.5582 18.7827C30.5582 22.5705 29.8539 25.8258 28.4453 28.5483C27.0485 31.2708 25.0303 33.3601 22.3906 34.8161C19.7628 36.272 16.6023 37 12.9091 37ZM7.17401 31.3004H12.5895C15.1226 31.3004 17.2356 30.8388 18.9283 29.9155C20.621 28.9804 21.8935 27.5895 22.7457 25.7429C23.598 23.8845 24.0241 21.5644 24.0241 18.7827C24.0241 16.0009 23.598 13.6927 22.7457 11.858C21.8935 10.0114 20.6328 8.63234 18.9638 7.72088C17.3066 6.79759 15.2469 6.33594 12.7848 6.33594H7.17401V31.3004ZM44.381 37.5504C42.6528 37.5504 41.0962 37.2427 39.7113 36.6271C38.3382 35.9998 37.2492 35.0765 36.4442 33.8572C35.6512 32.638 35.2546 31.1347 35.2546 29.3473C35.2546 27.8085 35.5387 26.536 36.1069 25.5298C36.6751 24.5237 37.4504 23.7188 38.4329 23.1151C39.4154 22.5114 40.5221 22.0556 41.7532 21.7479C42.9961 21.4283 44.2804 21.1974 45.6062 21.0554C47.2042 20.8897 48.5004 20.7417 49.4947 20.6115C50.489 20.4695 51.2111 20.2564 51.6609 19.9723C52.1225 19.6764 52.3533 19.2206 52.3533 18.6051V18.4986C52.3533 17.161 51.9568 16.1252 51.1637 15.3913C50.3706 14.6574 49.2283 14.2905 47.7369 14.2905C46.1625 14.2905 44.9137 14.6338 43.9904 15.3203C43.079 16.0069 42.4634 16.8177 42.1438 17.7528L36.1424 16.9006C36.6159 15.2434 37.3971 13.8584 38.4862 12.7457C39.5752 11.6212 40.9068 10.7808 42.4812 10.2244C44.0555 9.65625 45.7956 9.37216 47.7013 9.37216C49.0153 9.37216 50.3233 9.52604 51.6254 9.83381C52.9274 10.1416 54.1171 10.6506 55.1942 11.3608C56.2714 12.0592 57.1355 13.0121 57.7866 14.2195C58.4495 15.4268 58.7809 16.9361 58.7809 18.7472V37H52.6019V33.2536H52.3888C51.9982 34.0111 51.4478 34.7214 50.7376 35.3842C50.0392 36.0353 49.1573 36.562 48.092 36.9645C47.0385 37.3551 45.8015 37.5504 44.381 37.5504ZM46.0501 32.8274C47.3403 32.8274 48.4589 32.5729 49.4059 32.0639C50.3529 31.5431 51.0808 30.8565 51.5898 30.0043C52.1107 29.152 52.3711 28.2228 52.3711 27.2166V24.0028C52.1699 24.1686 51.8266 24.3224 51.3413 24.4645C50.8678 24.6065 50.3351 24.7308 49.7433 24.8374C49.1514 24.9439 48.5655 25.0386 47.9854 25.1214C47.4054 25.2043 46.9023 25.2753 46.4762 25.3345C45.5174 25.4647 44.6592 25.6778 43.9016 25.9737C43.1441 26.2696 42.5463 26.6839 42.1083 27.2166C41.6703 27.7375 41.4513 28.4122 41.4513 29.2408C41.4513 30.4245 41.8834 31.3182 42.7475 31.9219C43.6116 32.5256 44.7125 32.8274 46.0501 32.8274ZM86.7994 16.9361L80.94 17.5753C80.7743 16.9834 80.4843 16.4271 80.07 15.9062C79.6675 15.3854 79.123 14.9652 78.4364 14.6456C77.7499 14.326 76.9094 14.1662 75.9151 14.1662C74.5775 14.1662 73.453 14.4562 72.5415 15.0362C71.6419 15.6162 71.198 16.3679 71.2099 17.2912C71.198 18.0843 71.488 18.7294 72.0799 19.2266C72.6836 19.7237 73.6779 20.1321 75.0629 20.4517L79.7148 21.446C82.2953 22.0024 84.213 22.8842 85.4677 24.0916C86.7343 25.299 87.3735 26.8793 87.3853 28.8324C87.3735 30.5488 86.8704 32.0639 85.8761 33.3778C84.8936 34.6799 83.5264 35.6979 81.7745 36.4318C80.0226 37.1657 78.0103 37.5327 75.7376 37.5327C72.3995 37.5327 69.7125 36.8343 67.6765 35.4375C65.6405 34.0289 64.4272 32.0698 64.0366 29.5604L70.3043 28.9567C70.5884 30.1877 71.1921 31.117 72.1154 31.7443C73.0387 32.3717 74.2402 32.6854 75.7198 32.6854C77.2468 32.6854 78.4719 32.3717 79.3952 31.7443C80.3304 31.117 80.7979 30.3416 80.7979 29.4183C80.7979 28.6371 80.4961 27.992 79.8924 27.483C79.3005 26.974 78.3772 26.5833 77.1225 26.3111L72.4705 25.3345C69.8545 24.79 67.9192 23.8726 66.6644 22.5824C65.4097 21.2803 64.7882 19.6349 64.8001 17.6463C64.7882 15.9654 65.244 14.5095 66.1673 13.2784C67.1024 12.0355 68.3986 11.0767 70.0558 10.402C71.7248 9.71544 73.6483 9.37216 75.8263 9.37216C79.0224 9.37216 81.5378 10.0528 83.3725 11.4141C85.2191 12.7753 86.3614 14.616 86.7994 16.9361ZM99.1129 21.0199V37H92.6854V0.636363H98.9709V14.3615H99.2905C99.9297 12.8227 100.918 11.6094 102.256 10.7216C103.605 9.82197 105.321 9.37216 107.405 9.37216C109.299 9.37216 110.95 9.7687 112.359 10.5618C113.767 11.3549 114.856 12.5149 115.626 14.0419C116.407 15.5689 116.798 17.4332 116.798 19.6349V37H110.37V20.6293C110.37 18.7945 109.897 17.3681 108.95 16.3501C108.014 15.3203 106.701 14.8054 105.008 14.8054C103.871 14.8054 102.853 15.054 101.954 15.5511C101.066 16.0365 100.368 16.7408 99.8587 17.6641C99.3615 18.5874 99.1129 19.706 99.1129 21.0199ZM123.634 37V0.636363H130.061V14.2372H130.327C130.659 13.5743 131.126 12.87 131.73 12.1243C132.334 11.3667 133.151 10.7216 134.18 10.1889C135.21 9.64441 136.524 9.37216 138.122 9.37216C140.229 9.37216 142.129 9.91075 143.822 10.9879C145.526 12.0533 146.876 13.6335 147.87 15.7287C148.876 17.812 149.379 20.3688 149.379 23.3991C149.379 26.3939 148.888 28.9389 147.906 31.0341C146.923 33.1293 145.585 34.7273 143.893 35.8281C142.2 36.929 140.282 37.4794 138.14 37.4794C136.577 37.4794 135.281 37.219 134.251 36.6982C133.222 36.1773 132.393 35.55 131.766 34.8161C131.15 34.0703 130.671 33.366 130.327 32.7031H129.955V37H123.634ZM129.937 23.3636C129.937 25.1274 130.185 26.6721 130.683 27.9979C131.192 29.3236 131.92 30.3594 132.866 31.1051C133.825 31.839 134.985 32.206 136.347 32.206C137.767 32.206 138.957 31.8272 139.915 31.0696C140.874 30.3002 141.596 29.2526 142.082 27.9268C142.579 26.5893 142.827 25.0682 142.827 23.3636C142.827 21.6709 142.585 20.1676 142.099 18.8537C141.614 17.5398 140.892 16.5099 139.933 15.7642C138.974 15.0185 137.779 14.6456 136.347 14.6456C134.973 14.6456 133.808 15.0066 132.849 15.7287C131.89 16.4508 131.162 17.4628 130.665 18.7649C130.179 20.067 129.937 21.5999 129.937 23.3636ZM166.74 37.5327C164.077 37.5327 161.768 36.9467 159.815 35.7749C157.862 34.603 156.347 32.9635 155.27 30.8565C154.204 28.7495 153.672 26.2874 153.672 23.4702C153.672 20.6529 154.204 18.1849 155.27 16.0661C156.347 13.9472 157.862 12.3018 159.815 11.13C161.768 9.9581 164.077 9.37216 166.74 9.37216C169.403 9.37216 171.711 9.9581 173.665 11.13C175.618 12.3018 177.127 13.9472 178.192 16.0661C179.269 18.1849 179.808 20.6529 179.808 23.4702C179.808 26.2874 179.269 28.7495 178.192 30.8565C177.127 32.9635 175.618 34.603 173.665 35.7749C171.711 36.9467 169.403 37.5327 166.74 37.5327ZM166.775 32.3835C168.22 32.3835 169.427 31.987 170.398 31.1939C171.368 30.389 172.09 29.3118 172.564 27.9624C173.049 26.6129 173.292 25.1096 173.292 23.4524C173.292 21.7834 173.049 20.2741 172.564 18.9247C172.09 17.5634 171.368 16.4804 170.398 15.6754C169.427 14.8705 168.22 14.468 166.775 14.468C165.296 14.468 164.065 14.8705 163.082 15.6754C162.112 16.4804 161.384 17.5634 160.898 18.9247C160.425 20.2741 160.188 21.7834 160.188 23.4524C160.188 25.1096 160.425 26.6129 160.898 27.9624C161.384 29.3118 162.112 30.389 163.082 31.1939C164.065 31.987 165.296 32.3835 166.775 32.3835ZM193.112 37.5504C191.383 37.5504 189.827 37.2427 188.442 36.6271C187.069 35.9998 185.98 35.0765 185.175 33.8572C184.382 32.638 183.985 31.1347 183.985 29.3473C183.985 27.8085 184.269 26.536 184.837 25.5298C185.406 24.5237 186.181 23.7188 187.163 23.1151C188.146 22.5114 189.253 22.0556 190.484 21.7479C191.727 21.4283 193.011 21.1974 194.337 21.0554C195.935 20.8897 197.231 20.7417 198.225 20.6115C199.219 20.4695 199.942 20.2564 200.391 19.9723C200.853 19.6764 201.084 19.2206 201.084 18.6051V18.4986C201.084 17.161 200.687 16.1252 199.894 15.3913C199.101 14.6574 197.959 14.2905 196.467 14.2905C194.893 14.2905 193.644 14.6338 192.721 15.3203C191.809 16.0069 191.194 16.8177 190.874 17.7528L184.873 16.9006C185.346 15.2434 186.128 13.8584 187.217 12.7457C188.306 11.6212 189.637 10.7808 191.212 10.2244C192.786 9.65625 194.526 9.37216 196.432 9.37216C197.746 9.37216 199.054 9.52604 200.356 9.83381C201.658 10.1416 202.848 10.6506 203.925 11.3608C205.002 12.0592 205.866 13.0121 206.517 14.2195C207.18 15.4268 207.511 16.9361 207.511 18.7472V37H201.332V33.2536H201.119C200.729 34.0111 200.178 34.7214 199.468 35.3842C198.77 36.0353 197.888 36.562 196.822 36.9645C195.769 37.3551 194.532 37.5504 193.112 37.5504ZM194.781 32.8274C196.071 32.8274 197.189 32.5729 198.136 32.0639C199.083 31.5431 199.811 30.8565 200.32 30.0043C200.841 29.152 201.102 28.2228 201.102 27.2166V24.0028C200.9 24.1686 200.557 24.3224 200.072 24.4645C199.598 24.6065 199.066 24.7308 198.474 24.8374C197.882 24.9439 197.296 25.0386 196.716 25.1214C196.136 25.2043 195.633 25.2753 195.207 25.3345C194.248 25.4647 193.39 25.6778 192.632 25.9737C191.875 26.2696 191.277 26.6839 190.839 27.2166C190.401 27.7375 190.182 28.4122 190.182 29.2408C190.182 30.4245 190.614 31.3182 191.478 31.9219C192.342 32.5256 193.443 32.8274 194.781 32.8274ZM213.974 37V9.72727H220.207V14.2727H220.491C220.988 12.6984 221.84 11.4851 223.048 10.6328C224.267 9.7687 225.658 9.33665 227.22 9.33665C227.575 9.33665 227.972 9.3544 228.41 9.38991C228.86 9.41359 229.232 9.45502 229.528 9.5142V15.4268C229.256 15.3321 228.824 15.2493 228.232 15.1783C227.652 15.0954 227.09 15.054 226.545 15.054C225.374 15.054 224.32 15.3085 223.385 15.8175C222.462 16.3146 221.734 17.0071 221.201 17.8949C220.668 18.7827 220.402 19.8066 220.402 20.9666V37H213.974ZM242.796 37.4794C240.654 37.4794 238.736 36.929 237.044 35.8281C235.351 34.7273 234.013 33.1293 233.031 31.0341C232.048 28.9389 231.557 26.3939 231.557 23.3991C231.557 20.3688 232.054 17.812 233.048 15.7287C234.055 13.6335 235.41 12.0533 237.115 10.9879C238.819 9.91075 240.719 9.37216 242.814 9.37216C244.412 9.37216 245.726 9.64441 246.756 10.1889C247.786 10.7216 248.602 11.3667 249.206 12.1243C249.81 12.87 250.277 13.5743 250.609 14.2372H250.875V0.636363H257.32V37H250.999V32.7031H250.609C250.277 33.366 249.798 34.0703 249.171 34.8161C248.543 35.55 247.715 36.1773 246.685 36.6982C245.655 37.219 244.359 37.4794 242.796 37.4794ZM244.59 32.206C245.951 32.206 247.111 31.839 248.07 31.1051C249.029 30.3594 249.757 29.3236 250.254 27.9979C250.751 26.6721 250.999 25.1274 250.999 23.3636C250.999 21.5999 250.751 20.067 250.254 18.7649C249.768 17.4628 249.046 16.4508 248.088 15.7287C247.141 15.0066 245.975 14.6456 244.59 14.6456C243.157 14.6456 241.962 15.0185 241.003 15.7642C240.044 16.5099 239.322 17.5398 238.837 18.8537C238.352 20.1676 238.109 21.6709 238.109 23.3636C238.109 25.0682 238.352 26.5893 238.837 27.9268C239.334 29.2526 240.062 30.3002 241.021 31.0696C241.991 31.8272 243.181 32.206 244.59 32.206Z" fill="white"/>
</svg>
